<svg width="108" height="44" viewBox="0 0 108 44" fill="none" xmlns="http://www.w3.org/2000/svg">
<g clip-path="url(#clip0_5007_3658)">
<path fill-rule="evenodd" clip-rule="evenodd" d="M17.2413 11.4832L17.2688 13.5496C17.1954 14.8557 17.0301 15.956 16.773 16.8505C16.5159 17.7451 16.0108 18.5591 15.2579 19.2927C14.009 20.5092 12.1909 21.1175 9.80339 21.1175C6.99351 21.1175 5.06517 20.7597 4.01835 20.0441C2.97153 19.3105 2.44813 17.9956 2.44813 16.0991V15.4542L0.916002 14.1492L1.04059 13.9175L2.44813 13.7732V12.0522L0.516419 10.4573L0.662531 10.1753L2.44813 9.96446V8.68618L-0.0012207 6.35976L0.188363 6.04882L2.44813 5.94014V2.00989H10.0789C12.2827 2.00989 14.009 2.61818 15.2579 3.83478C16.2679 4.81878 16.8648 6.01749 17.0485 7.43088C17.177 8.43278 17.2413 9.78355 17.2413 11.4832ZM12.5857 16.609C12.9347 16.1975 13.155 15.6339 13.2469 14.9183C13.3571 14.1848 13.4122 13.0487 13.4122 11.51C13.4122 9.97141 13.3571 8.86217 13.2469 8.18231C13.155 7.48455 12.9347 6.92993 12.5857 6.51844C11.9246 5.73123 10.9696 5.33763 9.72075 5.33763H6.27727V15.9112C6.27727 16.6269 6.5252 17.1189 7.02106 17.3873C7.51692 17.6556 8.39845 17.7898 9.66565 17.7898C10.9512 17.7898 11.9246 17.3962 12.5857 16.609ZM33.8025 21.1175H26.8604C24.6566 21.1175 23.1047 20.7508 22.2049 20.0172C21.3233 19.2658 20.8826 17.9508 20.8826 16.0723V2.00989H33.8025V5.33763H24.7117V9.81934H31.0752L30.7998 13.1471H24.7117V15.8039C24.7117 16.5553 24.8862 17.0742 25.2351 17.3604C25.5841 17.6467 26.2177 17.7898 27.1359 17.7898H33.8025V21.1175ZM46.4696 20.0441L52.6403 2.00989H48.6459L44.7065 14.4621L40.7672 2.00989H36.8003L42.8884 20.0441C43.2189 20.8671 43.825 21.2786 44.7065 21.2786C45.5513 21.2786 46.139 20.8671 46.4696 20.0441ZM70.0893 2.00989L63.9186 20.0441C63.588 20.8671 63.0003 21.2786 62.1555 21.2786C61.274 21.2786 60.668 20.8671 60.3374 20.0441L54.2493 2.00989H58.2162L62.1555 14.4621L66.0949 2.00989H70.0893Z" fill="#44BAFD"/>
</g>
<g clip-path="url(#clip1_5007_3658)">
<path fill-rule="evenodd" clip-rule="evenodd" d="M1.64243 22.687V24.6778H1.64079V38.767C1.64079 40.6635 2.1642 41.9785 3.21101 42.712C4.25784 43.4276 6.18618 43.7855 8.99606 43.7855C11.3835 43.7855 13.2017 43.1772 14.4505 41.9606C15.2035 41.227 15.7085 40.413 15.9657 39.5184C16.2228 38.6239 16.3881 37.5236 16.4615 36.2175L16.434 34.1511C16.434 32.4515 16.3697 31.1007 16.2411 30.0988C16.0575 28.6854 15.4606 27.4867 14.4505 26.5027C13.2017 25.2861 11.4754 24.6778 9.27153 24.6778H3.99902L1.95547 22.687H1.64243ZM85.1517 23.2969L85.7464 25.9868C86.0257 26.2059 86.2811 26.4494 86.5126 26.7174C87.7798 28.1845 88.4134 30.394 88.4134 33.346V34.7952C88.4134 37.9977 87.789 40.3235 86.5401 41.7727C85.3097 43.2219 83.3262 43.9465 80.5898 43.9465C77.8534 43.9465 75.8699 43.2219 74.6395 41.7727C73.4274 40.3235 72.8213 37.9709 72.8213 34.7147V33.3192C72.8213 30.3493 73.4365 28.1397 74.667 26.6905C74.8412 26.4885 75.0292 26.3005 75.2312 26.1266L75.8568 23.2969H76.1777L77.3407 24.9689C78.2656 24.6675 79.3394 24.5168 80.5622 24.5168C81.7416 24.5168 82.7842 24.6568 83.6902 24.9367L84.8309 23.2969H85.1517ZM55.0056 34.7952V32.4336C55.0056 29.9467 55.676 28.0055 57.0166 26.61C58.3573 25.2145 60.2122 24.5168 62.5813 24.5168C64.9504 24.5168 66.8512 25.2145 68.2837 26.61C69.2938 27.594 69.7988 29.0701 69.7988 31.0381H66.2176C66.2176 28.909 65.0514 27.8445 62.719 27.8445C62.0211 27.8445 61.4243 27.9787 60.9284 28.2471C60.4509 28.4975 60.0928 28.7927 59.854 29.1327C59.6153 29.4726 59.4316 29.9736 59.3031 30.6355C59.1745 31.2975 59.1011 31.8521 59.0827 32.2994C59.0643 32.7467 59.0552 33.346 59.0552 34.0974V35.6271C59.0735 35.8776 59.1011 36.298 59.1378 36.8885C59.1929 37.461 59.2664 37.8725 59.3582 38.1229C59.4684 38.3734 59.6153 38.6955 59.799 39.0891C60.001 39.4827 60.2489 39.76 60.5427 39.921C61.2957 40.3862 62.1497 40.6187 63.1047 40.6187C64.7025 40.6187 65.8319 39.9568 66.4931 38.6328V37.3447H64.124V34.2316H69.7713V40.0015C69.2019 41.3075 68.302 42.2916 67.0716 42.9535C65.8411 43.6155 64.4453 43.9465 62.8843 43.9465C60.1112 43.9465 58.1002 43.1951 56.8513 41.6922C55.6209 40.1715 55.0056 37.8725 55.0056 34.7952ZM-51.5198 34.1511L-51.4923 36.2175C-51.5657 37.5236 -51.731 38.6239 -51.9881 39.5184C-52.2452 40.413 -52.7503 41.227 -53.5033 41.9606C-54.7521 43.1772 -56.5702 43.7855 -58.9577 43.7855C-61.7676 43.7855 -63.6959 43.4276 -64.7428 42.712C-65.7896 41.9785 -66.313 40.6635 -66.313 38.767V38.1221L-67.8451 36.8171L-67.7205 36.5854L-66.313 36.4411V34.7201L-68.2447 33.1252L-68.0986 32.8432L-66.313 32.6324V31.3541L-68.7623 29.0277L-68.5727 28.7167L-66.313 28.608V24.6778H-58.6822C-56.4784 24.6778 -54.7521 25.2861 -53.5033 26.5027C-52.4932 27.4867 -51.8963 28.6854 -51.7126 30.0988C-51.5841 31.1007 -51.5198 32.4515 -51.5198 34.1511ZM-56.1754 39.2769C-55.8265 38.8654 -55.6061 38.3018 -55.5142 37.5862C-55.404 36.8527 -55.349 35.7166 -55.349 34.178C-55.349 32.6393 -55.404 31.5301 -55.5142 30.8502C-55.6061 30.1525 -55.8265 29.5978 -56.1754 29.1863C-56.8365 28.3991 -57.7915 28.0055 -59.0404 28.0055H-62.4838V38.5792C-62.4838 39.2948 -62.2359 39.7868 -61.74 40.0552C-61.2442 40.3235 -60.3627 40.4577 -59.0955 40.4577C-57.8099 40.4577 -56.8365 40.0641 -56.1754 39.2769ZM-34.9586 43.7855H-41.9007C-44.1045 43.7855 -45.6564 43.4187 -46.5563 42.6852C-47.4378 41.9337 -47.8786 40.6187 -47.8786 38.7402V24.6778H-34.9586V28.0055H-44.0494V32.4873H-37.6859L-37.9613 35.815H-44.0494V38.4718C-44.0494 39.2232 -43.8749 39.7421 -43.526 40.0283C-43.1771 40.3146 -42.5435 40.4577 -41.6252 40.4577H-34.9586V43.7855ZM-23.4583 42.712L-17.2876 24.6778H-21.282L-25.2213 37.13L-29.1607 24.6778H-33.1276L-27.0395 42.712C-26.7089 43.535 -26.1029 43.9465 -25.2213 43.9465C-24.3765 43.9465 -23.7889 43.535 -23.4583 42.712ZM-1.00531 24.6778L-7.17602 42.712C-7.50659 43.535 -8.09428 43.9465 -8.93908 43.9465C-9.82061 43.9465 -10.4267 43.535 -10.7572 42.712L-16.8453 24.6778H-12.8784L-8.93908 37.13L-4.99974 24.6778H-1.00531ZM12.4395 37.5862C12.3477 38.3018 12.1273 38.8654 11.7784 39.2769C11.1172 40.0641 10.1439 40.4577 8.85831 40.4577C7.59112 40.4577 6.70959 40.3235 6.21372 40.0552C5.71786 39.7868 5.46992 39.2948 5.46992 38.5792V28.0055H8.91341C10.1622 28.0055 11.1172 28.3991 11.7784 29.1863C12.1273 29.5978 12.3477 30.1525 12.4395 30.8502C12.5497 31.5301 12.6048 32.6393 12.6048 34.178C12.6048 35.7166 12.5497 36.8527 12.4395 37.5862ZM34.9235 43.7855H30.4883L26.6591 36.7006H23.9044V43.7855H20.0752V28.7838C20.0752 27.3525 20.415 26.3148 21.0945 25.6708C21.774 25.0088 22.9126 24.6778 24.5104 24.6778H27.7611C29.7078 24.6778 31.2505 25.2593 32.3891 26.4222C33.5461 27.5672 34.1246 29.0253 34.1246 30.7965C34.1246 32.0847 33.7757 33.2029 33.0778 34.1511C32.3983 35.0815 31.5535 35.7255 30.5434 36.0834L34.9235 43.7855ZM27.5131 33.5876C28.3212 33.5876 28.9823 33.3192 29.4966 32.7825C30.0292 32.2278 30.2955 31.548 30.2955 30.7429C30.2955 29.9199 30.0383 29.2579 29.5241 28.757C29.0283 28.256 28.3579 28.0055 27.5131 28.0055H25.6123C24.4737 28.0055 23.9044 28.5691 23.9044 29.6962V33.5876H27.5131ZM49.2565 43.7855H53.251L46.9701 26.288C46.7313 25.6439 46.4558 25.2145 46.1436 24.9998C45.8498 24.7851 45.4549 24.6778 44.9591 24.6778C44.4632 24.6778 44.0408 24.7941 43.6919 25.0267C43.3613 25.2593 43.0583 25.6797 42.7828 26.288L36.5019 43.7855H40.4963L41.5707 40.4846H48.1546L49.2565 43.7855ZM44.9591 29.7768L47.2731 37.3447H42.5349L44.9591 29.7768ZM84.5842 33.7217V34.7147C84.5842 36.0744 84.4557 37.1926 84.1986 38.0693C84.0517 38.6239 83.8404 39.0712 83.565 39.4111C83.2895 39.751 82.9038 40.0373 82.408 40.2699C81.9121 40.5024 81.306 40.6187 80.5898 40.6187C79.8919 40.6187 79.2859 40.5024 78.7716 40.2699C78.2758 40.0194 77.8993 39.7242 77.6422 39.3843C76.981 38.5792 76.6505 37.0226 76.6505 34.7147V33.7217C76.6505 31.9505 76.8617 30.5819 77.2841 29.6157C77.7983 28.4349 78.9094 27.8445 80.6173 27.8445C82.3069 27.8445 83.4089 28.4349 83.9231 29.6157C84.3638 30.6355 84.5842 32.0042 84.5842 33.7217ZM107.326 24.6778V41.8532C107.326 42.4436 107.143 42.9535 106.775 43.3829C106.408 43.7944 105.977 44.0002 105.481 44.0002C104.214 44.0002 103.176 43.2845 102.368 41.8532L95.5911 31.5211V43.7855H91.7619V24.6778H95.4534L103.497 37.1837V24.6778H107.326Z" fill="white"/>
</g>
<defs>
<clipPath id="clip0_5007_3658">
<rect width="69.8755" height="21.3904" fill="white"/>
</clipPath>
<clipPath id="clip1_5007_3658">
<rect width="107.175" height="21.3131" fill="white" transform="translate(0.259277 22.687)"/>
</clipPath>
</defs>
</svg>
