<svg width="108" height="44" viewBox="0 0 108 44" fill="none" xmlns="http://www.w3.org/2000/svg">
<g clip-path="url(#clip0_14_420)">
<path fill-rule="evenodd" clip-rule="evenodd" d="M17.2111 11.4631L17.2386 13.5258C17.1652 14.8296 17.0002 15.928 16.7436 16.821C16.4869 17.7139 15.9828 18.5266 15.2311 19.2588C13.9845 20.4733 12.1695 21.0805 9.7862 21.0805C6.98125 21.0805 5.05628 20.7233 4.0113 20.0089C2.96632 19.2767 2.44383 17.964 2.44383 16.0709V15.4271L0.914393 14.1244L1.03877 13.8931L2.44383 13.749V12.0311L0.515512 10.439L0.661367 10.1574L2.44383 9.94697V8.67094L-0.0012207 6.34859L0.18803 6.03819L2.44383 5.9297V2.00635H10.0612C12.2612 2.00635 13.9845 2.61358 15.2311 3.82804C16.2394 4.81032 16.8352 6.00692 17.0186 7.41783C17.1469 8.41798 17.2111 9.76638 17.2111 11.4631ZM12.5636 16.5799C12.912 16.1691 13.132 15.6065 13.2236 14.8921C13.3336 14.1599 13.3886 13.0258 13.3886 11.4898C13.3886 9.95391 13.3336 8.84661 13.2236 8.16794C13.132 7.47141 12.912 6.91776 12.5636 6.50699C11.9037 5.72116 10.9503 5.32825 9.7037 5.32825H6.26626V15.8833C6.26626 16.5977 6.51376 17.0889 7.00875 17.3568C7.50374 17.6246 8.38372 17.7586 9.6487 17.7586C10.932 17.7586 11.9037 17.3657 12.5636 16.5799ZM33.7432 21.0805H26.8133C24.6134 21.0805 23.0642 20.7144 22.1659 19.9821C21.2859 19.232 20.8459 17.9193 20.8459 16.0441V2.00635H33.7432V5.32825H24.6684V9.8021H31.0208L30.7458 13.124H24.6684V15.7762C24.6684 16.5263 24.8425 17.0442 25.1909 17.33C25.5392 17.6157 26.1717 17.7586 27.0883 17.7586H33.7432V21.0805ZM46.3881 20.0089L52.548 2.00635H48.5605L44.6281 14.4367L40.6957 2.00635H36.7358L42.8131 20.0089C43.1431 20.8305 43.7481 21.2412 44.6281 21.2412C45.4714 21.2412 46.0581 20.8305 46.3881 20.0089ZM69.9664 2.00635L63.8065 20.0089C63.4765 20.8305 62.8898 21.2412 62.0465 21.2412C61.1665 21.2412 60.5616 20.8305 60.2316 20.0089L54.1542 2.00635H58.1141L62.0465 14.4367L65.979 2.00635H69.9664Z" fill="#44BAFD"/>
</g>
<g clip-path="url(#clip1_14_420)">
<path fill-rule="evenodd" clip-rule="evenodd" d="M1.63956 22.6471V24.6344H1.63792V38.6989C1.63792 40.592 2.16042 41.9047 3.2054 42.637C4.25038 43.3514 6.17535 43.7085 8.9803 43.7085C11.3636 43.7085 13.1786 43.1013 14.4252 41.8869C15.1769 41.1546 15.681 40.342 15.9377 39.449C16.1943 38.556 16.3593 37.4577 16.4327 36.1539L16.4052 34.0911C16.4052 32.3944 16.341 31.046 16.2127 30.0459C16.0293 28.635 15.4335 27.4384 14.4252 26.4561C13.1786 25.2416 11.4553 24.6344 9.25529 24.6344H3.99202L1.95206 22.6471H1.63956ZM85.0024 23.2559L85.5961 25.9411C85.8749 26.1598 86.1298 26.4029 86.3609 26.6704C87.6259 28.1349 88.2583 30.3406 88.2583 33.2874V34.734C88.2583 37.9309 87.635 40.2527 86.3884 41.6993C85.1601 43.146 83.1801 43.8693 80.4485 43.8693C77.7169 43.8693 75.7369 43.146 74.5086 41.6993C73.2986 40.2527 72.6936 37.9041 72.6936 34.6537V33.2606C72.6936 30.2959 73.3078 28.0902 74.5361 26.6436C74.7099 26.4419 74.8977 26.2542 75.0993 26.0806L75.7238 23.2559H76.0441L77.2051 24.925C78.1284 24.6241 79.2003 24.4737 80.421 24.4737C81.5982 24.4737 82.6391 24.6134 83.5434 24.8929L84.6821 23.2559H85.0024ZM54.9092 34.734V32.3766C54.9092 29.8941 55.5783 27.9563 56.9166 26.5632C58.255 25.1702 60.1066 24.4737 62.4715 24.4737C64.8365 24.4737 66.734 25.1702 68.1639 26.5632C69.1723 27.5455 69.6764 29.0189 69.6764 30.9835H66.1015C66.1015 28.8582 64.9373 27.7956 62.609 27.7956C61.9124 27.7956 61.3166 27.9295 60.8216 28.1974C60.3449 28.4474 59.9874 28.7421 59.7491 29.0815C59.5108 29.4208 59.3274 29.9209 59.1991 30.5817C59.0708 31.2425 58.9974 31.7961 58.9791 32.2426C58.9608 32.6891 58.9516 33.2874 58.9516 34.0375V35.5645C58.9699 35.8146 58.9974 36.2343 59.0341 36.8236C59.0891 37.3951 59.1624 37.8059 59.2541 38.056C59.3641 38.306 59.5108 38.6275 59.6941 39.0204C59.8958 39.4133 60.1432 39.6901 60.4366 39.8509C61.1882 40.3152 62.0407 40.5474 62.994 40.5474C64.589 40.5474 65.7165 39.8866 66.3765 38.565V37.2791H64.0115V34.1715H69.6489V39.9312C69.0806 41.235 68.1823 42.2173 66.954 42.8781C65.7257 43.5389 64.3324 43.8693 62.774 43.8693C60.0058 43.8693 57.9983 43.1192 56.7516 41.619C55.5233 40.1009 54.9092 37.8059 54.9092 34.734ZM-51.4294 34.0911L-51.4019 36.1539C-51.4753 37.4577 -51.6403 38.556 -51.8969 39.449C-52.1536 40.342 -52.6578 41.1546 -53.4094 41.8869C-54.656 43.1013 -56.471 43.7085 -58.8543 43.7085C-61.6593 43.7085 -63.5842 43.3514 -64.6292 42.637C-65.6742 41.9047 -66.1967 40.592 -66.1967 38.6989V38.0552L-67.7261 36.7524L-67.6017 36.5211L-66.1967 36.377V34.6591L-68.125 33.067L-67.9791 32.7855L-66.1967 32.575V31.299L-68.6417 28.9766L-68.4525 28.6662L-66.1967 28.5577V24.6344H-58.5793C-56.3794 24.6344 -54.656 25.2416 -53.4094 26.4561C-52.4011 27.4384 -51.8053 28.635 -51.6219 30.0459C-51.4936 31.046 -51.4294 32.3944 -51.4294 34.0911ZM-56.0769 39.2079C-55.7285 38.7971 -55.5085 38.2345 -55.4169 37.5202C-55.3069 36.7879 -55.2519 35.6538 -55.2519 34.1179C-55.2519 32.582 -55.3069 31.4747 -55.4169 30.796C-55.5085 30.0995 -55.7285 29.5458 -56.0769 29.135C-56.7368 28.3492 -57.6902 27.9563 -58.9368 27.9563H-62.3742V38.5114C-62.3742 39.2258 -62.1267 39.7169 -61.6318 39.9848C-61.1368 40.2527 -60.2568 40.3866 -58.9918 40.3866C-57.7085 40.3866 -56.7368 39.9937 -56.0769 39.2079ZM-34.8973 43.7085H-41.8272C-44.0271 43.7085 -45.5763 43.3424 -46.4746 42.6102C-47.3546 41.8601 -47.7946 40.5474 -47.7946 38.6721V24.6344H-34.8973V27.9563H-43.9721V32.4301H-37.6198L-37.8947 35.7521H-43.9721V38.4042C-43.9721 39.1543 -43.798 39.6723 -43.4496 39.958C-43.1013 40.2438 -42.4688 40.3866 -41.5522 40.3866H-34.8973V43.7085ZM-23.4171 42.637L-17.2572 24.6344H-21.2447L-25.1771 37.0647L-29.1095 24.6344H-33.0694L-26.9921 42.637C-26.6621 43.4585 -26.0571 43.8693 -25.1771 43.8693C-24.3338 43.8693 -23.7471 43.4585 -23.4171 42.637ZM-1.00352 24.6344L-7.16342 42.637C-7.49341 43.4585 -8.08007 43.8693 -8.92338 43.8693C-9.80337 43.8693 -10.4084 43.4585 -10.7383 42.637L-16.8157 24.6344H-12.8558L-8.92338 37.0647L-4.99096 24.6344H-1.00352ZM12.4177 37.5202C12.3261 38.2345 12.1061 38.7971 11.7577 39.2079C11.0978 39.9937 10.1261 40.3866 8.8428 40.3866C7.57782 40.3866 6.69784 40.2527 6.20284 39.9848C5.70786 39.7169 5.46035 39.2258 5.46035 38.5114V27.9563H8.8978C10.1444 27.9563 11.0978 28.3492 11.7577 29.135C12.1061 29.5458 12.3261 30.0995 12.4177 30.796C12.5277 31.4747 12.5827 32.582 12.5827 34.1179C12.5827 35.6538 12.5277 36.7879 12.4177 37.5202ZM34.8623 43.7085H30.4348L26.6124 36.6361H23.8625V43.7085H20.04V28.7332C20.04 27.3044 20.3792 26.2686 21.0575 25.6256C21.7358 24.9648 22.8725 24.6344 24.4675 24.6344H27.7124C29.6557 24.6344 31.1957 25.2148 32.3323 26.3757C33.4873 27.5187 34.0648 28.9743 34.0648 30.7424C34.0648 32.0283 33.7164 33.1445 33.0198 34.0911C32.3415 35.0198 31.4981 35.6628 30.4898 36.0199L34.8623 43.7085ZM27.4649 33.5285C28.2715 33.5285 28.9315 33.2606 29.4449 32.7248C29.9765 32.1712 30.2423 31.4925 30.2423 30.6888C30.2423 29.8673 29.9857 29.2065 29.4724 28.7064C28.9774 28.2063 28.3082 27.9563 27.4649 27.9563H25.5674C24.4308 27.9563 23.8625 28.5189 23.8625 29.644V33.5285H27.4649ZM49.1702 43.7085H53.1576L46.8877 26.2418C46.6494 25.5988 46.3744 25.1702 46.0627 24.9559C45.7694 24.7416 45.3752 24.6344 44.8802 24.6344C44.3853 24.6344 43.9636 24.7505 43.6153 24.9827C43.2853 25.2148 42.9828 25.6345 42.7078 26.2418L36.4379 43.7085H40.4253L41.4978 40.4134H48.0702L49.1702 43.7085ZM44.8802 29.7244L47.1902 37.2791H42.4603L44.8802 29.7244ZM84.4359 33.6625V34.6537C84.4359 36.011 84.3076 37.1272 84.0509 38.0024C83.9043 38.556 83.6934 39.0025 83.4184 39.3418C83.1434 39.6812 82.7584 39.9669 82.2635 40.1991C81.7685 40.4313 81.1635 40.5474 80.4485 40.5474C79.7518 40.5474 79.1468 40.4313 78.6335 40.1991C78.1385 39.9491 77.7627 39.6544 77.506 39.3151C76.8461 38.5114 76.5161 36.9576 76.5161 34.6537V33.6625C76.5161 31.8944 76.7269 30.5281 77.1485 29.5637C77.6619 28.3849 78.771 27.7956 80.476 27.7956C82.1626 27.7956 83.2626 28.3849 83.7759 29.5637C84.2159 30.5817 84.4359 31.9479 84.4359 33.6625ZM107.138 24.6344V41.7797C107.138 42.3691 106.955 42.8781 106.588 43.3067C106.222 43.7175 105.791 43.9229 105.296 43.9229C104.031 43.9229 102.995 43.2085 102.188 41.7797L95.4235 31.4657V43.7085H91.601V24.6344H95.286L103.316 37.1183V24.6344H107.138Z" fill="#191919"/>
</g>
<defs>
<clipPath id="clip0_14_420">
<rect width="69.7529" height="21.3529" fill="white"/>
</clipPath>
<clipPath id="clip1_14_420">
<rect width="106.987" height="21.2758" fill="white" transform="translate(0.25885 22.6471)"/>
</clipPath>
</defs>
</svg>
